<svg width="116" height="32" viewBox="0 0 116 32" fill="none" xmlns="http://www.w3.org/2000/svg">
<path fill-rule="evenodd" clip-rule="evenodd" d="M44.0439 3.99859C44.0439 6.10525 42.6889 7.79071 40.1058 7.98396L44.462 12.618C44.5804 12.7438 44.4911 12.95 44.3184 12.95H41.7746C41.7101 12.95 41.6486 12.9229 41.605 12.8754L37.1253 7.98462H37.0018V12.7535C37.0018 12.8624 36.9134 12.9507 36.8046 12.9507H34.667C34.5581 12.9507 34.4698 12.8624 34.4698 12.7535V0.199894C34.4698 0.0910166 34.5581 0.0026977 34.667 0.0026977H40.1507C41.5128 -0.00453885 44.0441 0.954798 44.0439 3.99859ZM37.0016 2.22629V5.97779L39.1931 5.97795C39.998 5.97795 40.6046 5.80707 41.0133 5.46926C41.4213 5.13095 41.6258 4.66304 41.6258 4.06833C41.6258 3.49598 41.4397 3.04518 41.0692 2.71789C40.6972 2.39191 40.1597 2.22629 39.4533 2.22629H37.0016ZM44.2518 7.98429C44.2518 5.13835 46.5588 2.83137 49.4047 2.83137C52.2507 2.83137 54.5576 5.13835 54.5576 7.98429C54.5576 10.8302 52.2507 13.1372 49.4047 13.1372C46.5588 13.1372 44.2518 10.8302 44.2518 7.98429ZM46.5098 7.98445C46.5098 9.5834 47.8058 10.8794 49.4047 10.8794C51.0037 10.8794 52.2997 9.5834 52.2997 7.98445C52.2997 6.3855 51.0037 5.0895 49.4047 5.0895C47.8058 5.0895 46.5098 6.3855 46.5098 7.98445ZM91.0702 12.782V11.1758L91.0703 11.1756C91.0703 11.0491 90.9531 10.9549 90.8299 10.9835C90.1717 11.1365 88.7293 11.1379 88.7293 9.38769V4.95842H90.8731C90.982 4.95842 91.0703 4.8701 91.0703 4.76123V3.20076C91.0703 3.09188 90.982 3.00357 90.8731 3.00357H88.7293V0.197427C88.7293 0.0428277 88.5591 -0.0517409 88.4278 0.0301637L86.3013 1.35544C86.2434 1.39146 86.2084 1.45461 86.2084 1.5227V3.00357H84.8402C84.7313 3.00357 84.643 3.09188 84.643 3.20076V4.76123C84.643 4.8701 84.7313 4.95842 84.8402 4.95842H86.2057V9.57008C86.2057 12.6236 88.7946 13.1374 89.7934 13.1374C90.2031 13.1374 90.5285 13.0628 90.8021 13.0001L90.8029 13C90.8417 12.9911 90.8795 12.9824 90.9164 12.9742C91.0064 12.9543 91.0702 12.8742 91.0702 12.782ZM75.1739 12.95C75.3465 12.95 75.4358 12.7443 75.318 12.6183L75.3182 12.6181L70.9873 7.98445L74.9215 3.32789C75.0297 3.19977 74.9386 3.00357 74.7708 3.00357H72.3127C72.2446 3.00357 72.1801 3.03366 72.1364 3.08596L68.9161 6.93449H68.7732V0.198085C68.7732 0.0431566 68.6028 -0.0512475 68.4716 0.0308216L66.3447 1.35922C66.2869 1.39524 66.2519 1.45856 66.2519 1.52649V12.7528C66.2519 12.8617 66.3402 12.95 66.4491 12.95H68.576C68.6849 12.95 68.7732 12.8617 68.7732 12.7528V8.98178H68.8898L72.4443 12.9068C72.4691 12.9344 72.5045 12.95 72.5416 12.95H75.1739ZM76.9395 3.52279C77.7407 3.06477 78.6191 2.83238 79.5515 2.83235C81.5952 2.83235 83.1458 3.93396 83.9397 5.26417C84.7806 6.67321 84.6096 8.1238 84.5816 8.36127L84.5798 8.37638C84.5681 8.479 84.5336 8.62538 84.5056 8.73409C84.4833 8.8211 84.4046 8.88162 84.3148 8.88162H76.7439C76.8132 9.18144 77.2753 11.0927 79.5515 11.0927C80.5607 11.0927 81.3306 10.6602 81.6847 10.2576C81.7281 10.208 81.7904 10.1799 81.8564 10.1799H83.9208C84.0693 10.1799 84.1647 10.3376 84.0958 10.4691C83.6445 11.3291 82.8126 12.184 81.6411 12.7089C81.0061 12.9936 80.3099 13.1379 79.5728 13.1379C78.6123 13.1379 77.7197 12.9084 76.9194 12.4575C75.5538 11.6881 74.3052 10.1753 74.3052 7.98462L74.3051 7.97275C74.3026 7.7391 74.2738 5.04606 76.9395 3.52279ZM79.552 4.86007C78.1161 4.86007 77.0316 5.80132 76.7285 7.13218H82.2501C82.1695 6.74174 81.6016 4.86007 79.552 4.86007ZM60.4637 10.8796C58.8644 10.8796 57.5685 9.58324 57.5685 7.98445L57.5687 7.98429C57.5687 6.38567 58.8644 5.08917 60.4638 5.08917C61.7182 5.08917 62.7859 5.8875 63.1881 7.0039C63.2157 7.08136 63.29 7.13202 63.3728 7.13202H65.3066C65.5276 7.13202 65.5038 6.90884 65.4968 6.87792C65.4755 6.78121 65.4378 6.63434 65.4089 6.53533C64.7834 4.39496 62.8065 2.83137 60.4638 2.83137C57.6179 2.83137 55.3109 5.13835 55.3109 7.98429C55.3109 10.8302 57.6179 13.1372 60.4638 13.1372C62.9187 13.1372 64.9706 11.4208 65.489 9.1224L65.4898 9.11911C65.5148 8.99757 65.4209 8.88228 65.296 8.88228H63.355C63.2734 8.88228 63.2006 8.93195 63.1716 9.00744C62.7583 10.1016 61.7023 10.8796 60.4637 10.8796ZM8.02636 28.0874V15.4593L8.02653 15.4595C8.02653 11.4511 11.2032 8.09761 15.2111 8.03067C19.3052 7.96225 22.6455 11.2606 22.6455 15.3391C22.6455 18.546 20.58 21.2703 17.7069 22.2549C17.4143 22.3551 17.3225 22.7232 17.5344 22.9485L22.6812 28.4262C22.8174 28.5713 23.0371 28.6048 23.2078 28.5025C27.6789 25.823 30.6718 20.9308 30.6718 15.3391C30.6718 6.79667 23.6874 -0.114566 15.1175 0.0046722C6.69846 0.121773 -0.103411 7.11426 0.00119047 15.5335C0.0692799 21.007 3.00469 25.7898 7.37475 28.4493C7.66042 28.6231 8.02636 28.422 8.02636 28.0874ZM73.9029 26.6009V28.2074C73.9029 28.2998 73.8392 28.3796 73.7488 28.3995C73.7117 28.4077 73.6736 28.4165 73.6345 28.4254C73.3608 28.4881 73.0355 28.5627 72.6259 28.5627C71.6271 28.5627 69.0383 28.0489 69.0383 24.9954V20.3837H67.6727C67.5638 20.3837 67.4755 20.2954 67.4755 20.1865V18.6261C67.4755 18.5172 67.5638 18.4289 67.6727 18.4289H69.0409V16.948C69.0409 16.8799 69.0759 16.8167 69.1338 16.7807L71.2604 15.4555C71.3916 15.3736 71.5618 15.468 71.5618 15.6227V18.4289H73.7057C73.8146 18.4289 73.9029 18.5172 73.9029 18.6261V20.1865C73.9029 20.2954 73.8146 20.3837 73.7057 20.3837H71.5618V24.813C71.5618 26.5611 73.0008 26.5618 73.66 26.4093C73.7843 26.3805 73.9029 26.4733 73.9029 26.6009ZM94.0005 28.178C94.0005 28.2864 93.9118 28.3752 93.8034 28.3752L92.0453 28.3757C91.9364 28.3757 91.8481 28.2874 91.8481 28.1785V27.2244H91.7782C91.4292 27.6454 90.4672 28.5627 88.7201 28.5627C87.7381 28.5627 86.8359 28.2517 86.1802 27.6869C85.5345 27.1308 85.1789 26.3797 85.1789 25.5718C85.1789 24.5964 85.6513 23.7711 86.5448 23.1851C87.4187 22.6121 88.6308 22.3093 90.0503 22.3093H91.645V22.1397C91.645 21.0059 90.932 20.3015 89.7842 20.3015C88.5472 20.3015 88.1665 21.0695 88.0564 21.4246C88.0239 21.5299 87.9255 21.6009 87.8148 21.6009H85.9304C85.7717 21.6009 85.6518 21.4582 85.6809 21.3029C85.7649 20.8534 86.0289 19.9783 86.8499 19.2639C87.6068 18.605 88.6285 18.2568 89.8044 18.2568C92.3535 18.2568 94.0005 19.8495 94.0005 22.3144V28.178ZM87.555 25.3973C87.555 26.1718 88.1665 26.6343 89.1906 26.6343C90.5897 26.6343 91.6448 25.7725 91.6448 24.5697V23.9663H90.0705C88.4484 23.9663 87.555 24.4745 87.555 25.3973ZM41.6578 25.0832L36.8595 15.5438C36.8259 15.4772 36.7578 15.4353 36.6833 15.4353H34.6668C34.5579 15.4353 34.4696 15.5236 34.4696 15.6325V28.1788C34.4696 28.2877 34.5579 28.376 34.6668 28.376H36.6917C36.8006 28.376 36.8889 28.2877 36.8889 28.1788V20.4263L40.8363 28.2486C40.8699 28.315 40.9379 28.3569 41.0123 28.3569H42.1242C42.1986 28.3569 42.2665 28.3152 42.3001 28.2489L46.305 20.3352V28.1788C46.305 28.2877 46.3933 28.376 46.5022 28.376H48.5271C48.636 28.376 48.7243 28.2877 48.7243 28.1788V15.6325C48.7243 15.5236 48.636 15.4353 48.5271 15.4353H46.6325C46.558 15.4353 46.4899 15.4772 46.4563 15.5438L41.6578 25.0832ZM82.1352 18.6264C82.1352 18.5175 82.2235 18.4292 82.3324 18.4292L82.3325 18.4294H84.0933C84.2022 18.4294 84.2905 18.5177 84.2905 18.6266V27.6841C84.2905 28.9758 83.842 30.0633 82.9935 30.8289C82.1442 31.5951 80.9354 32.0002 79.4979 32.0002C76.1701 32.0002 75.1284 29.8223 74.8657 29.0603C74.8218 28.9331 74.9182 28.8008 75.0527 28.8008H77.0582C77.1303 28.8008 77.1972 28.8393 77.2309 28.903C77.3811 29.1863 77.9305 29.9608 79.4573 29.9608C80.984 29.9608 81.9324 29.0959 81.9324 27.7033V26.7733H81.9248C81.6497 27.1318 80.6181 28.0492 79.0919 28.0492C76.4939 28.0492 74.3804 25.8527 74.3804 23.153C74.3804 21.8228 74.8769 20.5834 75.7787 19.6629C76.6668 18.7562 77.8434 18.2568 79.0917 18.2568C80.613 18.2568 81.6888 19.1028 82.0656 19.5716H82.1352V18.6264ZM76.7183 23.153C76.7183 24.7551 77.8677 26.01 79.3353 26.01C80.7671 26.01 81.932 24.7283 81.932 23.153C81.932 21.5509 80.7915 20.2961 79.3353 20.2961C77.8679 20.2961 76.7183 21.5509 76.7183 23.153ZM102.785 18.4292C102.677 18.4292 102.588 18.5175 102.588 18.6264V19.5716H102.519C102.142 19.1028 101.066 18.2568 99.5448 18.2568C98.2965 18.2568 97.1199 18.7562 96.2318 19.6629C95.33 20.5834 94.8335 21.8228 94.8335 23.153C94.8335 25.8527 96.947 28.0492 99.545 28.0492C101.071 28.0492 102.103 27.1318 102.378 26.7733H102.385V27.7033C102.385 29.0959 101.437 29.9608 99.9104 29.9608C98.3837 29.9608 97.8342 29.1863 97.684 28.903C97.6503 28.8393 97.5834 28.8008 97.5113 28.8008H95.5058C95.3713 28.8008 95.2749 28.9331 95.3188 29.0603C95.5815 29.8223 96.6232 32.0002 99.951 32.0002C101.388 32.0002 102.597 31.5951 103.447 30.8289C104.295 30.0633 104.744 28.9758 104.744 27.6841V18.6266C104.744 18.5177 104.655 18.4294 104.546 18.4294H102.786L102.785 18.4292ZM99.7884 26.01C98.3208 26.01 97.1714 24.7551 97.1714 23.153C97.1714 21.5509 98.321 20.2961 99.7884 20.2961C101.245 20.2961 102.385 21.5509 102.385 23.153C102.385 24.7283 101.22 26.01 99.7884 26.01ZM49.5708 23.4099C49.5708 20.5638 51.8777 18.2568 54.7237 18.2568C57.5698 18.2568 59.8768 20.564 59.8768 23.4099C59.8768 26.2559 57.5696 28.5628 54.7237 28.5628C51.8777 28.5628 49.5708 26.256 49.5708 23.4099ZM51.8287 23.4097C51.8287 25.0087 53.1247 26.3047 54.7237 26.3047C56.3226 26.3047 57.6186 25.0087 57.6186 23.4097C57.6186 21.8108 56.3226 20.5148 54.7237 20.5148C53.1247 20.5148 51.8287 21.8108 51.8287 23.4097ZM115.244 20.6896C114.45 19.3594 112.9 18.2578 110.856 18.2578C109.923 18.2578 109.045 18.4904 108.244 18.9482C105.578 20.4715 105.607 23.1646 105.609 23.3982L105.61 23.4101C105.61 25.6008 106.858 27.1137 108.224 27.8829C109.024 28.3339 109.917 28.5633 110.877 28.5633C111.614 28.5633 112.311 28.4191 112.946 28.1346C114.118 27.6093 114.95 26.7539 115.401 25.8934C115.47 25.7625 115.372 25.6055 115.225 25.6055H113.146C113.087 25.6055 113.033 25.6332 112.994 25.6778C112.642 26.0818 111.87 26.5183 110.856 26.5183C108.58 26.5183 108.118 24.6071 108.049 24.3072H115.619C115.71 24.3072 115.788 24.2462 115.811 24.1587C115.839 24.05 115.873 23.9043 115.885 23.8018L115.886 23.7868C115.914 23.5494 116.085 22.0987 115.244 20.6896H115.244ZM108.033 22.5575C108.336 21.2264 109.42 20.2854 110.856 20.2854C112.906 20.2854 113.474 22.167 113.554 22.5575H108.033ZM60.9319 18.6264C60.9319 18.5173 61.0202 18.4292 61.1291 18.4292L62.8856 18.4298C62.9945 18.43 63.0826 18.5182 63.0826 18.627V19.5782H63.1525C63.5347 19.0752 64.4878 18.2568 65.7417 18.2568C66.0762 18.2568 66.3414 18.2892 66.4999 18.3152C66.5951 18.3307 66.6639 18.4131 66.6639 18.5096V20.1331C66.6639 20.2854 66.5308 20.4036 66.3793 20.3839C66.2104 20.3618 65.9723 20.3408 65.6804 20.3408C64.2171 20.3408 63.3081 21.2699 63.3081 22.7654V28.1788C63.3081 28.2877 63.2198 28.376 63.1109 28.376H61.1291C61.0202 28.376 60.9319 28.2877 60.9319 28.1788V18.6264Z" fill="#DE3341"/>
</svg>
