<?xml version="1.0" encoding="utf-8"?>
<!-- Generator: Adobe Illustrator 24.0.2, SVG Export Plug-In . SVG Version: 6.00 Build 0)  -->
<svg version="1.1" id="Layer_1" xmlns="http://www.w3.org/2000/svg" xmlns:xlink="http://www.w3.org/1999/xlink" x="0px" y="0px"
	 viewBox="0 0 321.9 64.9" style="enable-background:new 0 0 321.9 64.9;" xml:space="preserve">
<style type="text/css">
	.st0{fill:#F8971D;}
	.st1{fill:#FFFFFF;}
</style>
<g id="Layer_1_1_">
	<path class="st0" d="M51.9,50V25.9c0-1.8-0.8-2.8-2.8-2.8c-2.1,0-5.9,1.3-9,2.9V50h-8.6V1.4l8.6-1.2v17.9c3.9-2,8.2-3.1,12.6-3.3
		c5.7,0,7.8,4,7.8,10.2v25H51.9z"/>
	<rect x="67.3" y="0.6" class="st0" width="8.6" height="10"/>
	<rect x="67.3" y="15.5" class="st0" width="8.6" height="34.5"/>
	<path class="st0" d="M104.3,7.6c-1.6-0.4-3.3-0.5-5-0.6c-3.4,0-3.9,1.5-3.9,4.1v4.3h8.8l-0.4,6.9h-8.3V50h-8.6V22.4h-5.5v-6.9h5.5
		v-4.8c0-7.1,3.3-10.7,11-10.7c2.5,0,5,0.3,7.4,1L104.3,7.6z"/>
	<path class="st0" d="M131.3,49.4c-2.4,0.9-5,1.3-7.6,1.3c-6.3,0-9.5-3-9.5-9.1V22.4h-5.2v-6.9h5.2V6.9l8.6-1.2v9.8h8.8l-0.6,6.9
		h-8.3v18.1c0,1.8,0.9,3,3.1,3c1.5,0,2.9-0.3,4.3-0.7L131.3,49.4z"/>
	<path class="st1" d="M142.5,25.7c0-6.3,2.8-10.6,10.6-10.6c3.6,0,7.1,0.4,10.6,1.1V1.7l4.1-0.6v49.2h-3.8l-0.2-3.3
		c-3.3,2.5-7.4,3.9-11.6,4c-6.7,0-9.8-3.3-9.8-9.6L142.5,25.7z M163.7,20c-3.5-0.8-7.1-1.2-10.8-1.2c-4.5,0-6.4,2.3-6.4,6.9v15.7
		c0,4,1.3,5.9,6,5.9c4.1-0.1,8-1.7,11.1-4.4V20z"/>
	<path class="st1" d="M177.1,9.3V1.7h4.1v7.6H177.1z M177.1,50.3V15.8h4.1v34.5H177.1z"/>
	<path class="st1" d="M202.2,39.7c-1.5,0-3.1-0.1-4.6-0.4c-1.9,1.6-2.7,2.9-2.7,4.5c0,1.3,0.8,2.3,3.1,2.5c4.3,0.3,5.3,0.4,9.9,0.8
		c6.3,0.5,8.6,3.4,8.6,8.2c0,7.2-3.5,9.6-14.7,9.6c-4.1-0.1-8.1-0.6-12.1-1.6l0.6-3.3c3.8,0.9,7.7,1.3,11.6,1.4
		c9.4,0,10.6-1.9,10.6-5.9c0-3.4-1.4-4.8-5.5-5c-4.4-0.3-4.8-0.3-9.4-0.6c-5.1-0.4-6.8-3-6.8-6.1c0.1-2.4,1.3-4.5,3.3-5.8
		c-3.5-2-5.1-5.5-5.1-10.4v-0.4c0-7.8,3.5-12.1,13.2-12.1c2-0.1,3.9,0.2,5.8,0.7h9.5v3l-4.3,0.4c1.6,2,2.3,4.8,2.3,8.1v0.4
		C215.4,35.4,211.3,39.7,202.2,39.7z M202.2,18.6c-6.9,0-9.3,2.1-9.3,8.4v0.7c0,6.5,3,8.4,9.3,8.4s9.3-2.2,9.3-8.4v-0.7
		C211.5,20.8,209.1,18.6,202.2,18.6z"/>
	<path class="st1" d="M223.9,9.3V1.7h4.1v7.6H223.9z M223.9,50.3V15.8h4.1v34.5H223.9z"/>
	<path class="st1" d="M255,49.7c-2.3,0.9-4.8,1.3-7.2,1.3c-5.4,0-7.8-2-7.8-7.4V19.3h-6.7v-3.5h6.7V7.6l4.1-0.6v8.7h10.6l-0.4,3.5
		h-10.1v23.8c0,3,0.4,4.3,4,4.3c2.1,0,4.2-0.4,6.2-1L255,49.7z"/>
	<path class="st1" d="M285.1,50.3h-3.5l-0.3-2.7c-3.5,2.2-7.5,3.4-11.7,3.4c-6.1,0-8.9-3.5-8.9-9.6c0-7.3,3.3-9.6,10.1-9.6H281v-6.7
		c0-4.8-2.5-6.3-8.1-6.3c-3.4,0-6.8,0.4-10.2,1.1l-0.6-3.5c3.5-0.9,7-1.3,10.6-1.4c8.9,0,12.5,3.5,12.5,10L285.1,50.3z M281,35.5
		h-10.1c-4.8,0-6.2,1.4-6.2,6c0,4,0.9,5.9,5.7,5.9c3.8-0.1,7.5-1.4,10.5-3.5L281,35.5z"/>
	<path class="st1" d="M295,50.3V1.7l4.1-0.6v49.2H295z"/>
	<path class="st0" d="M13.8,29c-4.7-1.2-4.9-1.4-4.9-4.2c0-2.1,0.6-3,4.4-3c2.1,0,4.1,0.2,6.2,0.5c1.2,0.1,2.4,0.3,3.3,0.5l0.5-4.2
		c0.2-0.9,0.3-1.7,0.3-2.6c-3.4-0.8-6.9-1.2-10.3-1.2c-9.9,0-12.9,3-12.9,10c0,6.7,1,8.8,9.4,10.8c5.6,1.3,6,2.4,6,4.5
		c0,2.6-0.6,3.5-4.4,3.5c-3.5,0-6.9-0.5-10.2-1.5L0,48.7c3.8,1.3,7.9,1.9,11.9,2c10.4,0,12.5-4.1,12.5-10.8
		C24.4,32.9,23.4,31.6,13.8,29z"/>
	<path class="st1" d="M307.9,2.3v8h-1.2v-8h-3.2V1.1h7.7v1.2H307.9z"/>
	<path class="st1" d="M320.5,2.7l-2.8,7.5h-1.2l-2.8-7.5l-0.1,7.7h-1.2l0.3-9.2h1.7l2.8,7.6l2.8-7.6h1.6l0.3,9.2h-1.3L320.5,2.7z"/>
</g>
</svg>
